<svg width="21" height="24" viewBox="0 0 21 24" fill="none" xmlns="http://www.w3.org/2000/svg">
<path fill-rule="evenodd" clip-rule="evenodd" d="M8.58091 6.12369e-05C7.55724 6.12369e-05 6.70417 0.781706 6.61424 1.80142C6.42753 3.93202 6.38025 6.07255 6.47272 8.20932L6.13811 8.23313L4.16746 8.37597C3.87966 8.39699 3.60226 8.49239 3.3624 8.65282C3.12254 8.81325 2.92846 9.03322 2.79914 9.29119C2.66982 9.54915 2.60971 9.83628 2.62468 10.1245C2.63966 10.4126 2.7292 10.692 2.88456 10.9352C4.33466 13.2043 6.20317 15.177 8.39046 16.7479L9.17872 17.3153C9.49088 17.5396 9.8656 17.6603 10.25 17.6603C10.6344 17.6603 11.0091 17.5396 11.3213 17.3153L12.1096 16.7479C14.2964 15.1769 16.1645 13.2042 17.6141 10.9352C17.7695 10.692 17.859 10.4126 17.874 10.1245C17.889 9.83628 17.8289 9.54915 17.6996 9.29119C17.5702 9.03322 17.3762 8.81325 17.1363 8.65282C16.8964 8.49239 16.619 8.39699 16.3312 8.37597L14.3606 8.23313C14.2495 8.22486 14.1384 8.21693 14.0273 8.20932C14.1199 6.07335 14.0723 3.93209 13.8858 1.80142C13.8428 1.30955 13.6169 0.851692 13.2528 0.518204C12.8887 0.184717 12.4128 -0.00016191 11.9191 6.12369e-05H8.58091ZM8.50685 9.07958C8.35622 6.71563 8.38407 4.34369 8.59017 1.98393H11.9098C12.1165 4.34365 12.1448 6.7156 11.9945 9.07958C11.9863 9.21063 12.0042 9.34201 12.0471 9.4661C12.0901 9.59019 12.1572 9.70452 12.2447 9.80245C12.3322 9.90038 12.4382 9.97997 12.5567 10.0366C12.6752 10.0932 12.8037 10.1258 12.9348 10.1324C13.3634 10.1535 13.7906 10.18 14.2178 10.2117L15.6475 10.3162C14.3776 12.1863 12.7883 13.8182 10.9523 15.137L10.2513 15.6409L9.54772 15.137C7.71162 13.8178 6.12228 12.1855 4.85256 10.3149L6.28227 10.213C6.70946 10.1813 7.13798 10.1548 7.56517 10.1337C7.69643 10.1273 7.82511 10.0949 7.94374 10.0383C8.06236 9.98174 8.16857 9.90218 8.25618 9.80423C8.3438 9.70627 8.41107 9.59189 8.4541 9.46772C8.49714 9.34355 8.51506 9.21206 8.50685 9.0809V9.07958Z" fill="white"/>
<path d="M1.98387 18.1855C1.98387 17.9225 1.87936 17.6702 1.69334 17.4841C1.50732 17.2981 1.25501 17.1936 0.991935 17.1936C0.728858 17.1936 0.476555 17.2981 0.290531 17.4841C0.104507 17.6702 0 17.9225 0 18.1855V20.8307C0 22.1083 1.0369 23.1452 2.31452 23.1452H18.1855C18.7993 23.1452 19.388 22.9014 19.8221 22.4673C20.2561 22.0333 20.5 21.4445 20.5 20.8307V18.1855C20.5 17.9225 20.3955 17.6702 20.2095 17.4841C20.0234 17.2981 19.7711 17.1936 19.5081 17.1936C19.245 17.1936 18.9927 17.2981 18.8067 17.4841C18.6206 17.6702 18.5161 17.9225 18.5161 18.1855V20.8307C18.5161 20.9184 18.4813 21.0025 18.4193 21.0645C18.3573 21.1265 18.2732 21.1613 18.1855 21.1613H2.31452C2.22682 21.1613 2.14272 21.1265 2.08071 21.0645C2.01871 21.0025 1.98387 20.9184 1.98387 20.8307V18.1855Z" fill="white"/>
</svg>
