<svg width="24" height="23" viewBox="0 0 24 23" fill="none" xmlns="http://www.w3.org/2000/svg">
<path d="M12.0006 0C5.37027 0 1.97411e-06 5.27655 1.97411e-06 11.7912C-0.00144297 14.2663 0.79036 16.6791 2.26309 18.6872C3.73582 20.6953 5.81469 22.1968 8.20481 22.9786C8.80484 23.0812 9.03045 22.7275 9.03045 22.4174C9.03045 22.1379 9.01485 21.21 9.01485 20.2219C6.0003 20.7678 5.22026 19.5002 4.98025 18.8364C4.84464 18.4968 4.26021 17.4509 3.75019 17.1703C3.33017 16.9498 2.73014 16.4039 3.73459 16.3897C4.68024 16.3744 5.35467 17.2446 5.58028 17.5983C6.66033 19.3811 8.38482 18.88 9.07485 18.5711C9.18046 17.8047 9.49488 17.2894 9.84049 16.9946C7.17036 16.6998 4.38022 15.6823 4.38022 11.1721C4.38022 9.88925 4.84464 8.82923 5.61028 8.00266C5.49028 7.70789 5.07025 6.49929 5.73029 4.87801C5.73029 4.87801 6.73474 4.56908 9.03045 6.08778C10.0074 5.82137 11.0168 5.68728 12.0306 5.68924C13.0507 5.68924 14.0707 5.8213 15.0308 6.0866C17.3265 4.55375 18.3309 4.87919 18.3309 4.87919C18.9909 6.50047 18.5709 7.70907 18.4509 8.00384C19.2154 8.82923 19.681 9.8751 19.681 11.1721C19.681 15.6976 16.8764 16.6998 14.2051 16.9946C14.6407 17.3625 15.0164 18.07 15.0164 19.176C15.0164 20.7525 15.0008 22.02 15.0008 22.4185C15.0008 22.7275 15.2264 23.0954 15.8264 22.9774C18.2083 22.187 20.278 20.6826 21.7443 18.6759C23.2105 16.6693 23.9994 14.2614 24 11.7912C24 5.27655 18.6297 0 11.9994 0H12.0006Z" fill="#1268CD"/>
</svg>
