<svg width="28" height="28" viewBox="0 0 28 28" fill="none" xmlns="http://www.w3.org/2000/svg">
<path d="M7.5 27H20.5" stroke="white" stroke-width="2" stroke-linecap="round" stroke-linejoin="round"/>
<path d="M1 20.5V3.6C1 2.91044 1.27393 2.24912 1.76152 1.76152C2.24912 1.27393 2.91044 1 3.6 1H24.4C25.0896 1 25.7509 1.27393 26.2385 1.76152C26.7261 2.24912 27 2.91044 27 3.6V20.5C27 21.1896 26.7261 21.8509 26.2385 22.3385C25.7509 22.8261 25.0896 23.1 24.4 23.1H3.6C2.91044 23.1 2.24912 22.8261 1.76152 22.3385C1.27393 21.8509 1 21.1896 1 20.5Z" stroke="white" stroke-width="2"/>
<path d="M10.1001 12.05L12.7001 14.65L17.9001 9.45001" stroke="white" stroke-width="2" stroke-linecap="round" stroke-linejoin="round"/>
</svg>
