<svg width="28" height="28" viewBox="0 0 28 28" fill="none" xmlns="http://www.w3.org/2000/svg">
<path d="M7.5 27H20.5" stroke="white" stroke-width="2" stroke-linecap="round" stroke-linejoin="round"/>
<path d="M1 20.5V3.6C1 2.91044 1.27393 2.24912 1.76152 1.76152C2.24912 1.27393 2.91044 1 3.6 1H24.4C25.0896 1 25.7509 1.27393 26.2385 1.76152C26.7261 2.24912 27 2.91044 27 3.6V20.5C27 21.1896 26.7261 21.8509 26.2385 22.3385C25.7509 22.8261 25.0896 23.1 24.4 23.1H3.6C2.91044 23.1 2.24912 22.8261 1.76152 22.3385C1.27393 21.8509 1 21.1896 1 20.5Z" stroke="white" stroke-width="2"/>
<path d="M17.7141 8.40998C17.237 7.91833 16.6674 7.52579 16.0382 7.25493C15.4089 6.98407 14.7323 6.84022 14.0473 6.83164C13.3623 6.82307 12.6823 6.94995 12.0464 7.20498C11.4106 7.46001 10.8314 7.83818 10.3422 8.31774C9.85294 8.7973 9.46328 9.36882 9.1956 9.99944C8.92792 10.6301 8.78748 11.3074 8.78237 11.9924C8.77726 12.6775 8.90756 13.3568 9.1658 13.9914C9.42404 14.6259 9.80512 15.2032 10.2872 15.69C11.2543 16.6667 12.5689 17.2208 13.9434 17.2311C15.318 17.2414 16.6406 16.707 17.6223 15.7447C18.6039 14.7825 19.1646 13.4708 19.1818 12.0963C19.199 10.7218 18.6713 9.39646 17.7141 8.40998ZM17.7141 8.40998L10.2859 15.69" stroke="white" stroke-width="2" stroke-linecap="round" stroke-linejoin="round"/>
</svg>
